<?xml version="1.0" standalone="no"?>
<!DOCTYPE svg PUBLIC "-//W3C//DTD SVG 20010904//EN"
 "http://www.w3.org/TR/2001/REC-SVG-20010904/DTD/svg10.dtd">
<svg version="1.0" xmlns="http://www.w3.org/2000/svg"
 width="3840.000000pt" height="2343.000000pt" viewBox="0 0 3840.000000 2343.000000"
 preserveAspectRatio="xMidYMid meet">

<g transform="translate(0.000000,2343.000000) scale(0.100000,-0.100000)"
fill="#000000" stroke="none">
<path d="M11300 23423 c-969 -31 -1853 -160 -2756 -403 -1506 -405 -2916
-1109 -4158 -2073 -200 -155 -391 -315 -606 -505 -205 -181 -761 -736 -940
-937 -591 -665 -1086 -1361 -1513 -2125 -178 -319 -497 -979 -588 -1217 l-9
-23 2090 0 2090 0 -5 -22 c-3 -13 -50 -315 -105 -673 -55 -357 -103 -662 -106
-677 l-6 -28 -1639 0 -1639 0 0 -740 0 -740 1485 0 1485 0 -6 -37 c-3 -21 -54
-324 -113 -673 l-107 -635 -1373 -3 -1373 -2 5 -523 c4 -485 6 -529 25 -616
46 -204 147 -348 296 -421 148 -73 56 -70 1679 -70 l1457 0 0 -23 c0 -13 -50
-328 -110 -700 -60 -372 -110 -679 -110 -682 0 -10 -3173 -5 -3295 6 -462 40
-770 164 -1015 409 -134 134 -223 278 -285 463 -19 56 -35 95 -35 87 0 -36 52
-342 90 -525 135 -647 365 -1394 630 -2035 887 -2154 2402 -3998 4355 -5299
631 -420 1287 -773 1968 -1057 1774 -742 3657 -1033 5612 -869 609 51 1316
173 1921 330 1884 490 3581 1411 5034 2734 314 286 787 781 1076 1126 986
1178 1741 2560 2189 4005 51 167 175 601 175 616 0 2 -355 4 -790 4 l-790 0 0
1488 c0 926 -4 1528 -10 1597 -26 278 -94 495 -210 665 -80 117 -222 232 -358
290 -249 106 -631 117 -898 26 -397 -135 -602 -464 -644 -1033 -5 -71 -10
-776 -10 -1580 l0 -1453 -790 0 -790 0 0 1723 c0 1469 2 1741 15 1851 47 398
159 706 363 996 84 120 308 344 427 429 373 263 791 410 1362 478 114 13 225
17 483 17 359 0 485 -10 760 -60 537 -98 987 -314 1297 -622 356 -353 544
-800 583 -1377 6 -90 10 -809 10 -1787 l0 -1638 790 0 789 0 4 1563 c4 1706 2
1656 62 1893 114 448 405 664 895 664 189 0 449 -44 590 -100 l46 -18 148 684
c82 377 147 686 145 687 -2 2 -85 16 -184 31 -512 80 -689 93 -987 77 -661
-36 -1143 -188 -1533 -481 -110 -83 -271 -246 -353 -358 -174 -236 -302 -550
-357 -874 -11 -70 -23 -130 -26 -132 -3 -3 -13 88 -23 202 -214 2532 -1198
4896 -2820 6777 -284 328 -683 738 -990 1013 -1725 1552 -3829 2522 -6126
2822 -585 76 -1282 111 -1850 93z m-210 -9500 c0 -1403 -4 -2268 -10 -2353
-63 -836 -332 -1490 -815 -1975 -515 -519 -1250 -799 -2160 -822 -845 -21
-1567 202 -2135 660 -138 111 -334 314 -442 457 -389 516 -576 1162 -538 1854
41 741 286 1342 740 1810 425 438 973 698 1670 793 194 26 684 26 855 -1 459
-70 863 -245 1158 -501 l87 -76 0 1186 0 1185 795 0 795 0 0 -2217z m3900 422
c589 -72 1078 -265 1465 -578 114 -92 307 -294 399 -417 302 -405 488 -917
561 -1540 9 -74 19 -246 22 -382 l6 -248 -2047 0 c-1630 0 -2046 -3 -2046 -12
0 -28 40 -177 64 -241 36 -95 90 -199 149 -287 72 -107 251 -282 372 -363 249
-165 567 -272 914 -308 142 -15 457 -6 601 16 239 36 534 123 792 231 72 30
133 53 135 50 5 -5 -111 -1138 -123 -1212 -6 -31 -8 -33 -172 -87 -377 -125
-753 -183 -1257 -194 -281 -6 -484 5 -725 38 -1307 181 -2215 986 -2444 2166
-104 534 -77 1080 76 1553 242 749 790 1325 1538 1619 292 115 554 174 955
215 101 10 637 -3 765 -19z"/>
<path d="M7874 12990 c-519 -55 -922 -344 -1110 -796 -81 -196 -115 -383 -115
-629 1 -552 243 -998 676 -1248 235 -135 563 -203 861 -178 387 33 673 158
909 395 190 192 303 408 367 700 20 88 22 130 22 336 0 255 -11 338 -70 516
-85 255 -252 490 -459 642 -277 204 -686 303 -1081 262z"/>
<path d="M14406 13250 c-511 -58 -888 -367 -1055 -865 -23 -66 -41 -128 -41
-137 0 -17 64 -18 1210 -18 l1210 0 -6 43 c-12 79 -52 223 -83 301 -142 354
-443 592 -834 660 -109 19 -303 27 -401 16z"/>
<path d="M36820 14950 c0 -654 -4 -1190 -8 -1190 -4 0 -28 21 -52 46 -25 25
-85 76 -135 113 -432 325 -1016 481 -1658 443 -601 -35 -1095 -189 -1522 -475
-640 -427 -1025 -1095 -1127 -1952 -19 -165 -16 -590 5 -745 132 -946 651
-1677 1482 -2085 400 -197 806 -298 1298 -324 658 -36 1319 90 1822 348 784
401 1277 1130 1425 2108 45 297 44 244 47 2626 l4 2277 -791 0 -790 0 0 -1190z
m-1233 -1960 c241 -32 450 -108 638 -231 99 -65 274 -239 338 -337 185 -279
269 -629 238 -989 -24 -287 -96 -503 -235 -713 -192 -288 -488 -480 -866 -561
-91 -20 -135 -23 -325 -23 -192 0 -233 2 -325 22 -287 63 -510 181 -696 368
-248 250 -386 585 -401 975 -31 794 424 1373 1167 1484 106 16 363 18 467 5z"/>
<path d="M28934 14359 c-448 -28 -863 -140 -1239 -332 -703 -360 -1184 -993
-1349 -1774 -46 -218 -59 -358 -60 -623 0 -135 5 -294 12 -355 79 -695 334
-1245 778 -1675 601 -583 1474 -865 2536 -820 366 16 653 55 933 127 142 36
363 108 378 123 7 6 136 1169 137 1226 0 6 -64 -15 -142 -48 -530 -221 -1009
-297 -1473 -233 -313 43 -595 145 -831 301 -112 74 -303 262 -374 368 -96 144
-180 348 -205 494 l-7 42 2048 0 2047 0 -6 248 c-8 346 -44 622 -118 917 -245
971 -866 1627 -1792 1890 -374 107 -837 152 -1273 124z m481 -1110 c207 -25
421 -107 565 -217 150 -114 283 -290 351 -466 31 -80 71 -226 82 -298 l6 -38
-1219 0 -1218 0 20 73 c96 342 289 608 562 778 235 145 543 206 851 168z"/>
</g>
</svg>
